<svg width="89" height="69" viewBox="0 0 89 69" fill="none" xmlns="http://www.w3.org/2000/svg">
<path d="M22.4835 65.3039V58.9014" stroke="#17A7E0" stroke-miterlimit="10" stroke-linejoin="round"/>
<path d="M32.0904 62.8959L28.9062 57.3689" stroke="#17A7E0" stroke-miterlimit="10" stroke-linejoin="round"/>
<path d="M12.986 62.5673L16.1701 56.9856" stroke="#17A7E0" stroke-miterlimit="10" stroke-linejoin="round"/>
<path d="M39.2826 56.0553L33.6829 52.8813" stroke="#17A7E0" stroke-miterlimit="10" stroke-linejoin="round"/>
<path d="M6.0697 55.3985L11.6694 52.2246" stroke="#17A7E0" stroke-miterlimit="10" stroke-linejoin="round"/>
<path d="M42.028 46.5886H35.6049" stroke="#17A7E0" stroke-miterlimit="10" stroke-linejoin="round"/>
<path d="M3.70831 45.8225H10.1315" stroke="#17A7E0" stroke-miterlimit="10" stroke-linejoin="round"/>
<path d="M39.6114 36.9575L34.0666 40.1862" stroke="#17A7E0" stroke-miterlimit="10" stroke-linejoin="round"/>
<path d="M6.45331 36.355L11.9981 39.5289" stroke="#17A7E0" stroke-miterlimit="10" stroke-linejoin="round"/>
<path d="M32.7498 29.8433L29.5657 35.3703" stroke="#17A7E0" stroke-miterlimit="10" stroke-linejoin="round"/>
<path d="M13.5894 29.4604L16.8284 35.0422" stroke="#17A7E0" stroke-miterlimit="10" stroke-linejoin="round"/>
<path d="M23.2521 59.2294C30.3772 59.2294 36.1533 53.4719 36.1533 46.3696C36.1533 39.2673 30.3772 33.5098 23.2521 33.5098C16.1269 33.5098 10.3508 39.2673 10.3508 46.3696C10.3508 53.4719 16.1269 59.2294 23.2521 59.2294Z" stroke="#17A7E0" stroke-miterlimit="10" stroke-linejoin="round"/>
<path d="M23.2526 27.1072V33.5097" stroke="#17A7E0" stroke-miterlimit="10" stroke-linejoin="round"/>
<path d="M48.7793 28.9999V25.3123" stroke="#17A7E0" stroke-miterlimit="10" stroke-linejoin="round"/>
<path d="M54.2947 27.613L52.4666 24.4297" stroke="#17A7E0" stroke-miterlimit="10" stroke-linejoin="round"/>
<path d="M43.3264 27.4239L45.1545 24.209" stroke="#17A7E0" stroke-miterlimit="10" stroke-linejoin="round"/>
<path d="M58.4239 23.673L55.209 21.845" stroke="#17A7E0" stroke-miterlimit="10" stroke-linejoin="round"/>
<path d="M39.3556 23.2949L42.5705 21.4668" stroke="#17A7E0" stroke-miterlimit="10" stroke-linejoin="round"/>
<path d="M60 18.2207H56.3123" stroke="#17A7E0" stroke-miterlimit="10" stroke-linejoin="round"/>
<path d="M38 17.7793H41.6877" stroke="#17A7E0" stroke-miterlimit="10" stroke-linejoin="round"/>
<path d="M58.6128 12.6733L55.4294 14.5329" stroke="#17A7E0" stroke-miterlimit="10" stroke-linejoin="round"/>
<path d="M39.576 12.3264L42.7594 14.1545" stroke="#17A7E0" stroke-miterlimit="10" stroke-linejoin="round"/>
<path d="M54.6734 8.57593L52.8453 11.7593" stroke="#17A7E0" stroke-miterlimit="10" stroke-linejoin="round"/>
<path d="M43.6729 8.35547L45.5325 11.5703" stroke="#17A7E0" stroke-miterlimit="10" stroke-linejoin="round"/>
<path d="M49.2204 25.5014C53.3111 25.5014 56.6272 22.1852 56.6272 18.0946C56.6272 14.0039 53.3111 10.6877 49.2204 10.6877C45.1296 10.6877 41.8135 14.0039 41.8135 18.0946C41.8135 22.1852 45.1296 25.5014 49.2204 25.5014Z" stroke="#17A7E0" stroke-miterlimit="10" stroke-linejoin="round"/>
<path d="M49.2208 7V10.6877" stroke="#17A7E0" stroke-miterlimit="10" stroke-linejoin="round"/>
</svg>
