<svg width="63" height="59" viewBox="0 0 63 59" fill="none" xmlns="http://www.w3.org/2000/svg">
<path d="M55.4873 56.8313C58.2204 56.8313 60.436 54.7141 60.436 52.1023C60.436 49.4905 58.2204 47.3733 55.4873 47.3733C52.7542 47.3733 50.5386 49.4905 50.5386 52.1023C50.5386 54.7141 52.7542 56.8313 55.4873 56.8313Z" stroke="#17A7E0" stroke-miterlimit="10" stroke-linejoin="round"/>
<path d="M7.51268 56.8313C10.2458 56.8313 12.4614 54.7141 12.4614 52.1023C12.4614 49.4905 10.2458 47.3733 7.51268 47.3733C4.77958 47.3733 2.56396 49.4905 2.56396 52.1023C2.56396 54.7141 4.77958 56.8313 7.51268 56.8313Z" stroke="#17A7E0" stroke-miterlimit="10" stroke-linejoin="round"/>
<path d="M31.5128 56.8311C34.2459 56.8311 36.4615 54.7138 36.4615 52.1021C36.4615 49.4903 34.2459 47.373 31.5128 47.373C28.7797 47.373 26.5641 49.4903 26.5641 52.1021C26.5641 54.7138 28.7797 56.8311 31.5128 56.8311Z" stroke="#17A7E0" stroke-miterlimit="10" stroke-linejoin="round"/>
<path d="M31.5127 34.3867V47.8632" stroke="#17A7E0" stroke-miterlimit="10" stroke-linejoin="round"/>
<path d="M55.4873 34.3867V47.8632" stroke="#17A7E0" stroke-miterlimit="10" stroke-linejoin="round"/>
<path d="M31.5128 33.9209C34.2459 33.9209 36.4615 31.8037 36.4615 29.1919C36.4615 26.5801 34.2459 24.4629 31.5128 24.4629C28.7797 24.4629 26.5641 26.5801 26.5641 29.1919C26.5641 31.8037 28.7797 33.9209 31.5128 33.9209Z" stroke="#17A7E0" stroke-miterlimit="10" stroke-linejoin="round"/>
<path d="M55.4873 33.9209C58.2204 33.9209 60.436 31.8037 60.436 29.1919C60.436 26.5801 58.2204 24.4629 55.4873 24.4629C52.7542 24.4629 50.5386 26.5801 50.5386 29.1919C50.5386 31.8037 52.7542 33.9209 55.4873 33.9209Z" stroke="#17A7E0" stroke-miterlimit="10" stroke-linejoin="round"/>
<path d="M7.51268 33.9209C10.2458 33.9209 12.4614 31.8037 12.4614 29.1919C12.4614 26.5801 10.2458 24.4629 7.51268 24.4629C4.77958 24.4629 2.56396 26.5801 2.56396 29.1919C2.56396 31.8037 4.77958 33.9209 7.51268 33.9209Z" stroke="#17A7E0" stroke-miterlimit="10" stroke-linejoin="round"/>
<path d="M11 32.5244L28.5385 49.2843" stroke="#17A7E0" stroke-miterlimit="10" stroke-linejoin="round"/>
<path d="M55.4873 11.011C58.2204 11.011 60.436 8.89377 60.436 6.282C60.436 3.67023 58.2204 1.55298 55.4873 1.55298C52.7542 1.55298 50.5386 3.67023 50.5386 6.282C50.5386 8.89377 52.7542 11.011 55.4873 11.011Z" stroke="#17A7E0" stroke-miterlimit="10" stroke-linecap="round" stroke-linejoin="round"/>
<path d="M7.51268 11.011C10.2458 11.011 12.4614 8.89377 12.4614 6.282C12.4614 3.67023 10.2458 1.55298 7.51268 1.55298C4.77958 1.55298 2.56396 3.67023 2.56396 6.282C2.56396 8.89377 4.77958 11.011 7.51268 11.011Z" stroke="#17A7E0" stroke-miterlimit="10" stroke-linecap="round" stroke-linejoin="round"/>
<path d="M7.5127 10.9866V24.4631" stroke="#17A7E0" stroke-miterlimit="10" stroke-linejoin="round"/>
<path d="M31.5128 11.011C34.2459 11.011 36.4615 8.89377 36.4615 6.282C36.4615 3.67023 34.2459 1.55298 31.5128 1.55298C28.7797 1.55298 26.5641 3.67023 26.5641 6.282C26.5641 8.89377 28.7797 11.011 31.5128 11.011Z" stroke="#17A7E0" stroke-miterlimit="10" stroke-linecap="round" stroke-linejoin="round"/>
<path d="M33.7949 9.32056L51.5898 26.3254" stroke="#17A7E0" stroke-miterlimit="10" stroke-linejoin="round"/>
</svg>
