<svg width="74" height="74" viewBox="0 0 74 74" fill="none" xmlns="http://www.w3.org/2000/svg">
<path d="M28.0352 53.0701C31.9205 53.0701 35.0702 49.9204 35.0702 46.0351C35.0702 42.1497 31.9205 39 28.0352 39C24.1498 39 21.0001 42.1497 21.0001 46.0351C21.0001 49.9204 24.1498 53.0701 28.0352 53.0701Z" stroke="#17A7E0" stroke-miterlimit="10" stroke-linecap="round" stroke-linejoin="round"/>
<path d="M28.1919 63.3838C37.6868 63.3838 45.3838 55.6868 45.3838 46.1919C45.3838 36.6971 37.6868 29 28.1919 29C18.6971 29 11 36.6971 11 46.1919C11 55.6868 18.6971 63.3838 28.1919 63.3838Z" stroke="#17A7E0" stroke-miterlimit="10" stroke-linecap="round" stroke-linejoin="round"/>
<path d="M27.898 71.7956C42.201 71.7956 53.7958 60.2008 53.7958 45.8978C53.7958 31.5948 42.201 20 27.898 20C13.5951 20 2.00024 31.5948 2.00024 45.8978C2.00024 60.2008 13.5951 71.7956 27.898 71.7956Z" stroke="#17A7E0" stroke-miterlimit="10" stroke-linecap="round" stroke-linejoin="round"/>
<path d="M50.7403 23.2598L28.0962 45.9478" stroke="#17A7E0" stroke-miterlimit="10" stroke-linecap="round" stroke-linejoin="round"/>
<path d="M50.8724 12.7511L61.425 2.19849L61.337 7.47478L61.2931 12.7511L66.5694 12.6631L71.8017 12.6192L61.2931 23.1278L56.0168 23.2157L50.7405 23.2597L50.7844 18.0274L50.8724 12.7511Z" stroke="#17A7E0" stroke-miterlimit="10" stroke-linecap="round" stroke-linejoin="round"/>
</svg>
